<?xml version="1.0" standalone="no"?>
<!DOCTYPE svg PUBLIC "-//W3C//DTD SVG 20010904//EN"
 "http://www.w3.org/TR/2001/REC-SVG-20010904/DTD/svg10.dtd">
<svg version="1.0" xmlns="http://www.w3.org/2000/svg"
 width="130.000000pt" height="130.000000pt" viewBox="0 0 130.000000 130.000000"
 preserveAspectRatio="xMidYMid meet">

<g transform="translate(0.000000,130.000000) scale(0.100000,-0.100000)"
fill="#000000" stroke="none">
<path d="M342 1127 l-42 -42 0 -110 0 -111 45 -44 46 -45 177 -1 177 -2 48 46
47 46 0 111 0 111 -43 42 -43 42 -184 0 -185 -1 -43 -42z m415 -29 c30 -31 32
-37 35 -126 l3 -94 -33 -29 -32 -29 -157 0 -157 0 -33 32 c-33 32 -33 33 -33
127 0 89 2 97 27 123 l27 28 161 0 161 0 31 -32z"/>
<path d="M453 1027 c-31 -25 -31 -76 0 -105 21 -19 35 -22 118 -22 87 0 97 2
117 23 13 13 22 36 22 54 0 50 -23 61 -134 65 -85 3 -103 0 -123 -15z m75 -50
c4 -20 -25 -34 -40 -19 -15 15 -1 44 19 40 10 -2 19 -11 21 -21z m130 -5 c3
-16 -2 -22 -17 -22 -26 0 -36 17 -20 36 16 19 33 13 37 -14z"/>
<path d="M946 819 c-23 -28 -26 -39 -26 -115 0 -83 0 -84 25 -84 25 0 25 1 25
78 0 82 9 102 45 102 38 0 45 -19 45 -125 0 -123 -8 -135 -88 -135 -44 0 -52
-3 -52 -19 0 -16 10 -20 61 -26 59 -7 62 -6 94 25 l33 32 1 118 c2 113 1 119
-24 149 -22 26 -34 31 -70 31 -36 0 -48 -5 -69 -31z"/>
<path d="M342 637 c-42 -43 -43 -45 -40 -103 3 -52 5 -59 26 -62 21 -3 22 0
22 56 0 56 2 61 34 86 34 25 38 26 190 26 152 0 155 0 185 -26 28 -23 31 -31
31 -85 0 -56 1 -59 25 -59 24 0 25 2 25 68 0 65 -1 69 -38 105 l-38 37 -190 0
-190 0 -42 -43z"/>
<path d="M480 420 l0 -90 95 0 95 0 0 90 0 90 -95 0 -95 0 0 -90z m140 0 l0
-40 -45 0 -45 0 0 40 0 40 45 0 45 0 0 -40z"/>
<path d="M790 307 c0 -36 -6 -49 -33 -75 l-33 -32 -126 0 c-123 0 -126 -1
-142 -25 l-16 -25 153 0 153 0 47 48 c44 45 47 51 47 100 0 49 -2 52 -25 52
-23 0 -25 -4 -25 -43z"/>
</g>
</svg>
